<svg width="81" height="56" viewBox="0 0 81 56" fill="none" xmlns="http://www.w3.org/2000/svg">
<path d="M75.0084 21.7602C72.1267 18.8854 68.2776 16.8783 63.8099 15.9178C63.3911 15.8276 62.9991 15.6409 62.6653 15.3724C62.3314 15.1039 62.065 14.761 61.8871 14.3713C60.2442 10.7829 57.7567 7.64572 54.6374 5.22794C50.6457 2.17444 45.7914 0.560913 40.5968 0.560913C34.6776 0.542123 28.9586 2.70251 24.5302 6.63011C20.3718 10.3349 17.5005 15.4521 16.2083 21.3787C16.1005 21.8804 15.855 22.342 15.4992 22.7118C15.1434 23.0815 14.6915 23.3446 14.1944 23.4716C9.89852 24.5542 8.05817 25.6264 5.7384 27.6919C2.44949 30.62 0.73114 34.6082 0.73114 39.1894C0.73114 44.4389 2.66084 48.7502 6.31061 51.6577C9.50846 54.2025 13.8765 55.548 18.9456 55.548H59.1549C64.8599 55.548 70.1713 53.5788 74.1046 50.0012C78.2011 46.281 80.4624 41.1225 80.4624 35.4777C80.4624 30.0666 78.5723 25.324 75.0084 21.7602Z" fill="#C9E8E0"/>
</svg>
